<svg width="151" height="45" viewBox="0 0 151 45" fill="none" xmlns="http://www.w3.org/2000/svg">
<path d="M0 34.9091V0H13.7727C16.4205 0 18.6761 0.505682 20.5398 1.51705C22.4034 2.51705 23.8239 3.90909 24.8011 5.69318C25.7898 7.46591 26.2841 9.51136 26.2841 11.8295C26.2841 14.1477 25.7841 16.1932 24.7841 17.9659C23.7841 19.7386 22.3352 21.1193 20.4375 22.108C18.5511 23.0966 16.267 23.5909 13.5852 23.5909H4.80682V17.6761H12.392C13.8125 17.6761 14.983 17.4318 15.9034 16.9432C16.8352 16.4432 17.5284 15.7557 17.983 14.8807C18.4489 13.9943 18.6818 12.9773 18.6818 11.8295C18.6818 10.6705 18.4489 9.65909 17.983 8.79545C17.5284 7.92045 16.8352 7.24432 15.9034 6.76705C14.9716 6.27841 13.7898 6.03409 12.358 6.03409H7.38068V34.9091H0Z" fill="#2D9CDB"/>
<path d="M42.3494 35.4205C39.7017 35.4205 37.4119 34.858 35.4801 33.733C33.5597 32.5966 32.0767 31.017 31.0312 28.9943C29.9858 26.9602 29.4631 24.6023 29.4631 21.9205C29.4631 19.2159 29.9858 16.8523 31.0312 14.8295C32.0767 12.7955 33.5597 11.2159 35.4801 10.0909C37.4119 8.95455 39.7017 8.38636 42.3494 8.38636C44.9972 8.38636 47.2812 8.95455 49.2017 10.0909C51.1335 11.2159 52.6222 12.7955 53.6676 14.8295C54.7131 16.8523 55.2358 19.2159 55.2358 21.9205C55.2358 24.6023 54.7131 26.9602 53.6676 28.9943C52.6222 31.017 51.1335 32.5966 49.2017 33.733C47.2812 34.858 44.9972 35.4205 42.3494 35.4205ZM42.3835 29.7955C43.5881 29.7955 44.5938 29.4545 45.4006 28.7727C46.2074 28.0795 46.8153 27.1364 47.2244 25.9432C47.6449 24.75 47.8551 23.392 47.8551 21.8693C47.8551 20.3466 47.6449 18.9886 47.2244 17.7955C46.8153 16.6023 46.2074 15.6591 45.4006 14.9659C44.5938 14.2727 43.5881 13.9261 42.3835 13.9261C41.1676 13.9261 40.1449 14.2727 39.3153 14.9659C38.4972 15.6591 37.8778 16.6023 37.4574 17.7955C37.0483 18.9886 36.8438 20.3466 36.8438 21.8693C36.8438 23.392 37.0483 24.75 37.4574 25.9432C37.8778 27.1364 38.4972 28.0795 39.3153 28.7727C40.1449 29.4545 41.1676 29.7955 42.3835 29.7955Z" fill="#2D9CDB"/>
<path d="M67.2188 11.8295V34.9091H59.9574V11.8295H67.2188Z" fill="#2D9CDB"/>
<path d="M80.2969 0V34.9091H73.0355V0H80.2969Z" fill="#2D9CDB"/>
<path d="M86.1136 34.9091V17.9093H89.7443H93.375V34.9091H86.1136ZM89.7614 14.6082C88.6818 14.6082 87.7557 14.2503 86.983 13.5344C86.2216 12.8071 85.8409 11.9378 85.8409 10.9264C85.8409 9.9264 86.2216 9.06845 86.983 8.35254C87.7557 7.62527 88.6818 7.26163 89.7614 7.26163C90.8409 7.26163 91.7614 7.62527 92.5227 8.35254C93.2955 9.06845 93.6818 9.9264 93.6818 10.9264C93.6818 11.9378 93.2955 12.8071 92.5227 13.5344C91.7614 14.2503 90.8409 14.6082 89.7614 14.6082Z" fill="#2D9CDB"/>
<path d="M99.3281 34.9091V0H122.442V6.08523H106.709V14.4034H120.908V20.4886H106.709V34.9091H99.3281Z" fill="#2D9CDB"/>
<path d="M130.112 44.7273C129.192 44.7273 128.328 44.6534 127.521 44.5057C126.726 44.3693 126.067 44.1932 125.544 43.9773L127.18 38.5568C128.033 38.8182 128.8 38.9602 129.482 38.983C130.175 39.0057 130.771 38.8466 131.271 38.5057C131.783 38.1648 132.197 37.5852 132.516 36.767L132.942 35.6591L123.55 8.72727H131.186L136.607 27.9545H136.879L142.351 8.72727H150.038L139.862 37.7386C139.374 39.1477 138.709 40.375 137.868 41.4205C137.038 42.4773 135.987 43.2898 134.714 43.858C133.442 44.4375 131.908 44.7273 130.112 44.7273Z" fill="#2D9CDB"/>
</svg>
